<!--?xml version="1.0" encoding="utf-8"?-->
<!-- Generator: Adobe Illustrator 16.0.0, SVG Export Plug-In . SVG Version: 6.00 Build 0)  -->

<svg version="1.1" xmlns="http://www.w3.org/2000/svg" xmlns:xlink="http://www.w3.org/1999/xlink" x="0px" y="0px" width="2000px" height="2000px" viewBox="0 0 2000 2000" enable-background="new 0 0 2000 2000" xml:space="preserve" style="">
<g id="Layer_1">
	
		<text transform="matrix(0 -1 1 0 81.9443 1118.1035)" fill="#FFFFFF" font-family="'Code-Bold'" font-size="37" letter-spacing="14">April 24</text>
</g>
<g id="Layer_2">
</g>
<g id="Layer_3">
	<g>
		<path fill="#CC0070" d="M1084.137,1368.58c-1.055-1.138-2.034-3.332-2.177-4.877l-2.361-25.477
			c-0.143-1.545,0.953-2.437,2.437-1.982l25.063,7.684c1.483,0.454,3.559,1.757,4.613,2.895l126.591,136.6
			c1.055,1.138,1.996,3.335,2.094,4.883l1.642,26.162c0.098,1.548-1.025,2.406-2.494,1.908l-24.227-8.221
			c-1.469-0.498-3.533-1.837-4.588-2.975L1084.137,1368.58z" class="qJpsoBsd_0"></path>
	</g>
	<g>
		<path fill="#CC0070" d="M1210.194,1150.387c1.011-1.176,3.056-2.496,4.544-2.933l24.55-7.201c1.488-0.437,2.574,0.468,2.412,2.011
			l-2.732,26.07c-0.162,1.543-1.121,3.768-2.132,4.943l-126.593,147.338c-1.011,1.176-3.065,2.46-4.566,2.852l-25.361,6.629
			c-1.501,0.392-2.559-0.545-2.352-2.082l3.423-25.354c0.207-1.537,1.204-3.758,2.215-4.934L1210.194,1150.387z" class="qJpsoBsd_1"></path>
	</g>
	<g>
		<path fill="#CC0070" d="M968.093,1592c-1.551,0-3.885-0.659-5.186-1.504l-21.462-13.912c-1.301-0.845-1.322-2.25-0.047-3.132
			l21.556-14.883c1.275-0.882,3.588-1.569,5.139-1.569h67.252c1.552,0,3.864,0.691,5.14,1.573l21.555,14.902
			c1.275,0.882,1.255,2.287-0.047,3.132l-21.461,13.893c-1.302,0.845-3.635,1.5-5.187,1.5H968.093z" class="qJpsoBsd_2"></path>
	</g>
	<g>
		<path fill="#CC0070" d="M937.093,443c-1.551,0-3.885-0.66-5.186-1.504l-21.462-13.913c-1.301-0.844-1.322-2.25-0.046-3.132
			l21.555-14.881c1.276-0.883,3.588-1.57,5.14-1.57h129.252c1.552,0,3.864,0.691,5.14,1.574l21.555,14.9
			c1.275,0.883,1.255,2.288-0.047,3.132l-21.461,13.893c-1.302,0.844-3.635,1.5-5.187,1.5H937.093z" class="qJpsoBsd_3"></path>
	</g>
	<g>
		<path fill="#CC0070" d="M1209.854,1517.102c1.494-0.413,3.928-0.37,5.407,0.097l24.4,7.697c1.479,0.467,1.876,1.823,0.883,3.014
			l-16.796,20.127c-0.993,1.19-3.029,2.504-4.524,2.917l-122.641,33.947c-1.495,0.413-3.916,0.334-5.381-0.176l-24.754-8.625
			c-1.465-0.51-1.821-1.878-0.793-3.038l16.97-19.15c1.028-1.16,3.094-2.449,4.588-2.862L1209.854,1517.102z" class="qJpsoBsd_4"></path>
	</g>
	<g>
		<path fill="#CC0070" d="M1086.056,461.491c-0.296-1.523-0.088-3.955,0.462-5.406l9.068-23.925c0.55-1.451,1.927-1.77,3.06-0.71
			l19.142,17.91c1.133,1.06,2.302,3.172,2.598,4.695l23.998,123.456c0.296,1.523,0.053,3.941-0.539,5.375l-10.017,24.225
			c-0.593,1.434-1.978,1.712-3.078,0.619l-18.155-18.027c-1.101-1.093-2.243-3.233-2.539-4.756L1086.056,461.491z" class="qJpsoBsd_5"></path>
	</g>
	<g>
		<path fill="#CC0070" d="M1196.146,1016.472c-0.345-1.512-0.178-3.936,0.372-5.386l9.068-23.925c0.55-1.451,1.927-1.77,3.06-0.71
			l19.142,17.91c1.133,1.06,2.342,3.164,2.688,4.676l21.818,95.494c0.346,1.512,0.143,3.922-0.449,5.355l-10.017,24.225
			c-0.593,1.434-1.978,1.712-3.078,0.619l-18.155-18.027c-1.101-1.093-2.283-3.225-2.629-4.736L1196.146,1016.472z" class="qJpsoBsd_6"></path>
	</g>
	<g>
		<path fill="#CC0070" d="M915.863,1368.58c1.054-1.138,2.034-3.332,2.177-4.877l2.36-25.477c0.143-1.545-0.953-2.437-2.436-1.982
			l-25.063,7.684c-1.483,0.454-3.559,1.757-4.613,2.895l-126.591,136.6c-1.054,1.138-1.997,3.335-2.094,4.883l-1.642,26.162
			c-0.097,1.548,1.025,2.406,2.494,1.908l24.227-8.221c1.469-0.498,3.534-1.837,4.588-2.975L915.863,1368.58z" class="qJpsoBsd_7"></path>
	</g>
	<g>
		<path fill="#CC0070" d="M789.806,1150.387c-1.011-1.176-3.056-2.496-4.544-2.933l-24.55-7.201
			c-1.488-0.437-2.574,0.468-2.412,2.011l2.732,26.07c0.162,1.543,1.121,3.768,2.132,4.943l126.593,147.338
			c1.011,1.176,3.066,2.46,4.566,2.852l25.361,6.629c1.5,0.392,2.559-0.545,2.351-2.082l-3.422-25.354
			c-0.208-1.537-1.205-3.758-2.215-4.934L789.806,1150.387z" class="qJpsoBsd_8"></path>
	</g>
	<g>
		<path fill="#CC0070" d="M1031.907,1592c1.552,0,3.885-0.659,5.187-1.504l21.461-13.912c1.302-0.845,1.322-2.25,0.047-3.132
			l-21.555-14.883c-1.275-0.882-3.588-1.569-5.14-1.569h-67.252c-1.551,0-3.864,0.691-5.139,1.573l-21.556,14.902
			c-1.275,0.882-1.254,2.287,0.047,3.132l21.462,13.893c1.301,0.845,3.635,1.5,5.186,1.5H1031.907z" class="qJpsoBsd_9"></path>
	</g>
	<g>
		<path fill="#CC0070" d="M1062.907,443c1.552,0,3.885-0.66,5.187-1.504l21.461-13.913c1.302-0.844,1.322-2.25,0.047-3.132
			l-21.555-14.881c-1.275-0.883-3.588-1.57-5.14-1.57H933.655c-1.551,0-3.864,0.691-5.14,1.574l-21.555,14.9
			c-1.276,0.883-1.255,2.288,0.046,3.132l21.462,13.893c1.301,0.844,3.635,1.5,5.186,1.5H1062.907z" class="qJpsoBsd_10"></path>
	</g>
	<g>
		<path fill="#CC0070" d="M790.146,1517.102c-1.495-0.413-3.928-0.37-5.407,0.097l-24.4,7.697c-1.479,0.467-1.876,1.823-0.882,3.014
			l16.795,20.127c0.994,1.19,3.03,2.504,4.525,2.917l122.641,33.947c1.495,0.413,3.916,0.334,5.381-0.176l24.754-8.625
			c1.465-0.51,1.821-1.878,0.793-3.038l-16.97-19.15c-1.028-1.16-3.093-2.449-4.588-2.862L790.146,1517.102z" class="qJpsoBsd_11"></path>
	</g>
	<g>
		<path fill="#CC0070" d="M913.944,461.491c0.296-1.523,0.088-3.955-0.461-5.406l-9.069-23.925c-0.55-1.451-1.926-1.77-3.059-0.71
			l-19.142,17.91c-1.133,1.06-2.302,3.172-2.598,4.695l-23.998,123.456c-0.296,1.523-0.053,3.941,0.54,5.375l10.016,24.225
			c0.593,1.434,1.978,1.712,3.079,0.619l18.155-18.027c1.101-1.093,2.243-3.233,2.539-4.756L913.944,461.491z" class="qJpsoBsd_12"></path>
	</g>
	<g>
		<path fill="#CC0070" d="M803.854,1016.472c0.345-1.512,0.178-3.936-0.372-5.386l-9.069-23.925c-0.55-1.451-1.926-1.77-3.059-0.71
			l-19.142,17.91c-1.133,1.06-2.342,3.164-2.688,4.676l-21.818,95.494c-0.345,1.512-0.143,3.922,0.45,5.355l10.016,24.225
			c0.593,1.434,1.978,1.712,3.079,0.619l18.155-18.027c1.101-1.093,2.284-3.225,2.629-4.736L803.854,1016.472z" class="qJpsoBsd_13"></path>
	</g>
	<g>
		<path fill="#CC0070" d="M937.92,1579.672" class="qJpsoBsd_14"></path>
	</g>
</g>
<g id="Layer_4">
	<g>
		<g>
			<path fill="#00FFFF" d="M1123.224,643.004c-0.299-1.522-0.063-3.943,0.521-5.379l9.66-23.693c0.585-1.436,1.97-1.722,3.075-0.634
				l18.691,18.379c1.105,1.087,2.255,3.223,2.554,4.745l61.489,313.576c0.299,1.522,0.029,3.928-0.599,5.346l-10.613,23.969
				c-0.628,1.418-2.02,1.662-3.093,0.542l-17.703-18.472c-1.073-1.12-2.195-3.282-2.494-4.804L1123.224,643.004z" class="qJpsoBsd_15"></path>
		</g>
		<g>
			<path fill="#00FFFF" d="M880.777,643.004c0.298-1.522,0.063-3.943-0.522-5.379l-9.66-23.693
				c-0.585-1.436-1.969-1.722-3.075-0.634l-18.691,18.379c-1.106,1.087-2.255,3.223-2.553,4.745l-61.49,313.576
				c-0.298,1.522-0.029,3.928,0.599,5.346l10.613,23.969c0.628,1.418,2.02,1.662,3.093,0.542l17.703-18.472
				c1.073-1.12,2.195-3.282,2.494-4.804L880.777,643.004z" class="qJpsoBsd_16"></path>
		</g>
	</g>
</g>
<style data-made-with="vivus-instant">.qJpsoBsd_0{stroke-dasharray:506 508;stroke-dashoffset:507;animation:qJpsoBsd_draw 2000ms linear 0ms forwards;}.qJpsoBsd_1{stroke-dasharray:522 524;stroke-dashoffset:523;animation:qJpsoBsd_draw 2000ms linear 62ms forwards;}.qJpsoBsd_2{stroke-dasharray:268 270;stroke-dashoffset:269;animation:qJpsoBsd_draw 2000ms linear 125ms forwards;}.qJpsoBsd_3{stroke-dasharray:392 394;stroke-dashoffset:393;animation:qJpsoBsd_draw 2000ms linear 187ms forwards;}.qJpsoBsd_4{stroke-dasharray:388 390;stroke-dashoffset:389;animation:qJpsoBsd_draw 2000ms linear 250ms forwards;}.qJpsoBsd_5{stroke-dasharray:385 387;stroke-dashoffset:386;animation:qJpsoBsd_draw 2000ms linear 312ms forwards;}.qJpsoBsd_6{stroke-dasharray:330 332;stroke-dashoffset:331;animation:qJpsoBsd_draw 2000ms linear 375ms forwards;}.qJpsoBsd_7{stroke-dasharray:506 508;stroke-dashoffset:507;animation:qJpsoBsd_draw 2000ms linear 437ms forwards;}.qJpsoBsd_8{stroke-dasharray:522 524;stroke-dashoffset:523;animation:qJpsoBsd_draw 2000ms linear 500ms forwards;}.qJpsoBsd_9{stroke-dasharray:268 270;stroke-dashoffset:269;animation:qJpsoBsd_draw 2000ms linear 562ms forwards;}.qJpsoBsd_10{stroke-dasharray:392 394;stroke-dashoffset:393;animation:qJpsoBsd_draw 2000ms linear 625ms forwards;}.qJpsoBsd_11{stroke-dasharray:388 390;stroke-dashoffset:389;animation:qJpsoBsd_draw 2000ms linear 687ms forwards;}.qJpsoBsd_12{stroke-dasharray:385 387;stroke-dashoffset:386;animation:qJpsoBsd_draw 2000ms linear 750ms forwards;}.qJpsoBsd_13{stroke-dasharray:330 332;stroke-dashoffset:331;animation:qJpsoBsd_draw 2000ms linear 812ms forwards;}.qJpsoBsd_14{stroke-dasharray:0 2;stroke-dashoffset:1;animation:qJpsoBsd_draw 2000ms linear 875ms forwards;}.qJpsoBsd_15{stroke-dasharray:773 775;stroke-dashoffset:774;animation:qJpsoBsd_draw 2000ms linear 937ms forwards;}.qJpsoBsd_16{stroke-dasharray:773 775;stroke-dashoffset:774;animation:qJpsoBsd_draw 2000ms linear 1000ms forwards;}@keyframes qJpsoBsd_draw{100%{stroke-dashoffset:0;}}@keyframes qJpsoBsd_fade{0%{stroke-opacity:1;}94.44444444444444%{stroke-opacity:1;}100%{stroke-opacity:0;}}</style></svg>
