<?xml version="1.0" encoding="utf-8"?>
<!-- Generator: Adobe Illustrator 16.0.0, SVG Export Plug-In . SVG Version: 6.00 Build 0)  -->
<!DOCTYPE svg PUBLIC "-//W3C//DTD SVG 1.1//EN" "http://www.w3.org/Graphics/SVG/1.1/DTD/svg11.dtd">
<svg version="1.1" id="Layer_1" xmlns="http://www.w3.org/2000/svg" xmlns:xlink="http://www.w3.org/1999/xlink" x="0px" y="0px"
	 width="1000px" height="1000px" viewBox="0 0 1000 1000" enable-background="new 0 0 1000 1000" xml:space="preserve">
<g>
	<g>
		<path fill="none" stroke="#22B573" stroke-width="7" stroke-miterlimit="10" d="M166.313,689.898c-0.135,0.935-0.2,1.834-0.2,2.7
			c0,0.868,0,1.769,0,2.7c-0.134,2.269-0.2,4.5-0.2,6.699c0,2.2,0,4.435,0,6.7c0.131,2.269,0.266,4.5,0.4,6.7
			c0.131,2.2,0.331,4.369,0.6,6.5c0.131,1.068,0.266,2.135,0.4,3.2c0.131,1.068,0.331,2.134,0.6,3.2c0.266,1.068,0.531,2.1,0.8,3.1
			c0.266,1,0.531,2.034,0.8,3.1c0.266,1.069,0.566,2.069,0.9,3c0.332,0.935,0.766,1.869,1.3,2.801c0.931,2.134,1.931,3.8,3,5
			c1.331,1.6,2.666,2.8,4,3.6c1.2,0.935,2.8,1.6,4.8,2c0.531,0.135,1.466,0.2,2.8,0.2c0.4,0,0.831,0,1.3,0
			c0.466,0,0.966-0.065,1.5-0.2c1.6-0.131,3.4-0.666,5.4-1.6c0.931-0.4,1.8-0.866,2.6-1.4c0.8-0.531,1.6-1.131,2.4-1.8
			c0.8-0.666,1.6-1.366,2.4-2.101c0.8-0.73,1.6-1.5,2.4-2.3c2.666-3.065,5.266-6.6,7.8-10.6c1.2-1.866,2.3-3.8,3.3-5.8
			s2.031-4.066,3.1-6.2c0.8-1.731,1.666-3.8,2.6-6.2c0.531-0.8,1-1.865,1.4-3.2c0.131-0.266,0.332-0.8,0.6-1.6
			c0.266-0.531,0.4-1.065,0.4-1.601c0.531-1.331,1.4-1.73,2.6-1.199c1.2,0.269,1.666,1.068,1.4,2.399c-0.269,0.8-0.4,1.4-0.4,1.8
			c-0.134,0.27-0.334,0.801-0.6,1.601c-0.134,0.669-0.269,1.234-0.4,1.7c-0.134,0.469-0.334,1.034-0.6,1.699
			c-0.668,2.27-1.469,4.469-2.4,6.601c-0.8,2.269-1.669,4.469-2.6,6.6c-0.934,2.135-1.934,4.269-3,6.4
			c-1.334,2.269-2.6,4.334-3.8,6.2c-1.2,2-2.6,4-4.2,6c-0.8,0.934-1.6,1.868-2.4,2.8c-0.8,0.935-1.734,1.8-2.8,2.6
			c-1.6,1.601-3.669,3.132-6.2,4.601c-2.534,1.331-5.069,2.266-7.6,2.8c-0.668,0.266-1.369,0.399-2.1,0.399
			c-0.734,0-1.434,0.066-2.1,0.2c-0.669,0-1.369-0.034-2.1-0.1c-0.734-0.069-1.435-0.101-2.1-0.101c-2.8-0.399-5.469-1.334-8-2.8
			c-2.534-1.334-4.734-3.068-6.6-5.2c-2-2.131-3.534-4.331-4.6-6.6c-0.668-1.065-1.269-2.2-1.8-3.4c-0.534-1.199-1-2.399-1.4-3.6
			c-1.069-2.531-1.869-4.865-2.4-7c-0.269-1.2-0.5-2.4-0.7-3.6c-0.2-1.2-0.435-2.4-0.7-3.601c-0.534-2.399-0.9-4.8-1.1-7.2
			c-0.2-2.399-0.369-4.8-0.5-7.199c-0.266-2.4-0.4-4.801-0.4-7.2c0-2.4,0.069-4.8,0.2-7.2c0.131-4.666,0.366-9.365,0.7-14.1
			c0.331-4.731,0.831-9.432,1.5-14.101c0.266-2.266,0.565-4.6,0.9-7c0.331-2.399,0.7-4.731,1.1-7c0.4-2.266,0.831-4.565,1.3-6.899
			c0.466-2.332,0.966-4.632,1.5-6.9c0.531-2.4,1.065-4.831,1.6-7.3c0.531-2.466,1.131-4.9,1.8-7.3l-83,1.6
			c-1.6,0.135-3-0.365-4.2-1.5c-1.2-1.131-1.8-2.565-1.8-4.3c-0.131-1.731,0.369-3.166,1.5-4.3c1.134-1.132,2.569-1.766,4.3-1.9h0.2
			l85.4,1.8c0.266-0.665,0.5-1.331,0.7-2c0.2-0.665,0.431-1.331,0.7-2c1.465-4.531,3-9.031,4.6-13.5c1.6-4.466,3.332-8.831,5.2-13.1
			c1.866-4.132,4.065-8.4,6.6-12.8c1.331-2.132,2.666-4.166,4-6.101c1.331-1.931,2.866-3.831,4.6-5.7c1.6-2,3.4-3.8,5.4-5.399
			c0.666-0.4,1.231-0.8,1.7-1.2c0.466-0.4,1.031-0.731,1.7-1c1.2-0.8,2.466-1.4,3.8-1.8c0.666-0.266,1.366-0.466,2.1-0.601
			c0.731-0.131,1.431-0.199,2.1-0.199h0.4h0.2h0.4h0.2c0.266,0,0.465,0.034,0.6,0.1c0.131,0.068,0.332,0.1,0.6,0.1
			c1.066,0.27,1.866,0.535,2.4,0.801c1.066,0.534,1.8,1.068,2.2,1.6c0.4,0.4,0.866,1,1.4,1.8c0.666,1.2,1.131,2.601,1.4,4.2
			c0.131,0.669,0.2,1.3,0.2,1.9c0,0.6,0,1.234,0,1.899c0,0.669-0.034,1.269-0.1,1.8c-0.069,0.535-0.1,1.135-0.1,1.801l-1.2,7.199
			c-0.269,1.069-0.569,2.2-0.9,3.4c-0.334,1.2-0.635,2.334-0.9,3.4c-0.269,0.668-0.434,1.234-0.5,1.699
			c-0.068,0.469-0.234,1.035-0.5,1.7c-0.269,0.669-0.469,1.234-0.6,1.7c-0.135,0.469-0.269,1.034-0.4,1.7
			c-1.469,4.399-3,8.769-4.6,13.1c-1.6,4.335-3.269,8.635-5,12.9c-0.269,0.669-0.469,1.234-0.6,1.7
			c-0.134,0.469-0.334,0.969-0.6,1.5l87.8,1.8c1.332,0,2,0.669,2,2c-0.269,1.2-0.934,1.8-2,1.8l-90.8,1.8
			c-1.069,2.534-2.169,5.069-3.3,7.601c-1.135,2.534-2.3,5.068-3.5,7.6c-1.869,4.269-3.834,8.469-5.9,12.6
			c-2.068,4.135-4.234,8.27-6.5,12.4c-1.068,2.135-2.168,4.234-3.3,6.3c-1.134,2.069-2.3,4.101-3.5,6.101s-2.435,4.034-3.7,6.1
			c-1.269,2.068-2.5,4.1-3.7,6.1c-0.269,0.27-0.5,0.5-0.7,0.7C166.813,689.398,166.579,689.633,166.313,689.898z M177.513,624.099
			c-1.6,5.868-3,11.669-4.2,17.399c-0.535,2.27-1,4.5-1.4,6.7c-0.4,2.2-0.8,4.435-1.2,6.7c-0.4,2.269-0.8,4.5-1.2,6.7
			s-0.734,4.435-1,6.7v0.6c1.066-1.466,2.166-2.966,3.3-4.5c1.131-1.531,2.231-3.1,3.3-4.7c2.666-3.731,5.131-7.531,7.4-11.399
			c2.266-3.866,4.531-7.866,6.8-12c1.2-2,2.331-4.031,3.4-6.101c1.065-2.065,2.131-4.231,3.2-6.5L177.513,624.099z M179.913,615.099
			c-0.134,0.134-0.2,0.399-0.2,0.8l19.6,0.4c0.4-0.801,0.766-1.601,1.1-2.4c0.332-0.8,0.7-1.6,1.1-2.4
			c1.866-4.266,3.631-8.531,5.3-12.8c1.666-4.266,3.231-8.531,4.7-12.8c0.266-1.065,0.6-2.166,1-3.3c0.4-1.132,0.731-2.231,1-3.3
			c0.266-1.066,0.5-2.166,0.7-3.301c0.2-1.131,0.431-2.23,0.7-3.3c0.266-1.065,0.466-2.165,0.6-3.3c0.131-1.131,0.2-2.231,0.2-3.3
			v-3.2c-0.134-0.666-0.2-1.231-0.2-1.7c0-0.466-0.134-0.966-0.4-1.5c-0.269-0.931-0.6-1.731-1-2.399l-0.6-0.601
			c-0.269-0.266-0.534-0.399-0.8-0.399c-0.535-0.132-1.2-0.132-2,0c-0.535,0-1.334,0.269-2.4,0.8c-1.469,0.8-2.935,2-4.4,3.6
			c-0.668,0.669-1.3,1.435-1.9,2.3c-0.6,0.869-1.234,1.77-1.9,2.7c-0.269,0.4-0.569,0.835-0.9,1.3c-0.334,0.469-0.634,0.969-0.9,1.5
			c-0.269,0.4-0.535,0.835-0.8,1.301c-0.269,0.469-0.534,0.969-0.8,1.5c-0.535,0.934-1.035,1.868-1.5,2.8
			c-0.469,0.935-0.969,1.935-1.5,3c-0.935,2-1.834,4.034-2.7,6.1c-0.869,2.069-1.7,4.169-2.5,6.3c-1.734,4.135-3.3,8.369-4.7,12.7
			C182.413,606.533,181.113,610.833,179.913,615.099z"/>
		<path fill="none" stroke="#22B573" stroke-width="7" stroke-miterlimit="10" d="M229.11,734.698c0,0.135-0.034,0.234-0.1,0.3
			c-0.069,0.069-0.1,0.169-0.1,0.301c0.131-0.132,0.2-0.266,0.2-0.4c0-0.131,0.066-0.266,0.2-0.4c1.466-2.931,2.9-5.831,4.3-8.699
			c1.4-2.866,2.832-5.7,4.3-8.5c1.465-2.932,2.965-5.801,4.5-8.601c1.531-2.8,3.166-5.531,4.9-8.2l2.4-4.199
			c0.531-0.666,1-1.366,1.4-2.101c0.4-0.731,0.8-1.431,1.2-2.1c0.931-1.331,1.831-2.666,2.7-4c0.865-1.331,1.831-2.666,2.9-4
			c0.931-1.331,1.866-2.632,2.8-3.9c0.931-1.266,1.931-2.565,3-3.899c2-2.531,4.131-5.066,6.4-7.601
			c2.131-2.531,4.531-4.931,7.2-7.2c2.531-2.266,5.4-4.331,8.6-6.199c0.8-0.4,1.6-0.801,2.4-1.2c0.8-0.4,1.666-0.731,2.6-1
			c0.931-0.4,1.866-0.7,2.8-0.9c0.931-0.2,1.866-0.431,2.8-0.7c0.531,0,1.031-0.031,1.5-0.1c0.465-0.065,0.965-0.1,1.5-0.1h0.8h0.2
			h0.2h0.4h0.2c0.8,0,1.466,0.068,2,0.199c0.4,0.135,1.131,0.335,2.2,0.601c0.4,0.134,0.766,0.269,1.1,0.399
			c0.332,0.135,0.7,0.335,1.1,0.601c0.531,0.399,1.2,1,2,1.8c0.8,0.8,1.332,1.4,1.6,1.8c0.4,0.669,0.7,1.335,0.9,2
			c0.2,0.669,0.431,1.335,0.7,2c0.4,1.2,0.6,2.335,0.6,3.4c0.131,2.134,0.131,4.134,0,6c-0.135,0.935-0.269,1.834-0.4,2.7
			c-0.134,0.868-0.269,1.699-0.4,2.5c-0.269,0.934-0.469,1.8-0.6,2.6c-0.134,0.8-0.334,1.6-0.6,2.4l-3,9.6
			c-0.535,1.469-1.069,2.969-1.6,4.5c-0.535,1.534-1.134,3.034-1.8,4.5c-1.068,3.068-2.2,6.068-3.4,9c-1.2,2.935-2.334,5.935-3.4,9
			c-1.2,2.935-2.3,5.869-3.3,8.8c-1,2.935-1.969,5.935-2.9,9c-1.068,3.069-1.8,5.935-2.2,8.601c-0.134,0.8-0.234,1.534-0.3,2.199
			c-0.068,0.669-0.1,1.335-0.1,2c0,1.2,0.131,2.335,0.4,3.4c0.131,0.269,0.2,0.469,0.2,0.6c0,0.135,0.066,0.27,0.2,0.4l0.6,0.6
			c0.131,0,0.3,0.035,0.5,0.101c0.2,0.068,0.431,0.1,0.7,0.1c0,0.135,0.131,0.2,0.4,0.2h0.2h0.2h0.2h0.2h0.4
			c0.666-0.131,1.266-0.231,1.8-0.3c0.531-0.065,1.131-0.231,1.8-0.5c1.065-0.266,2.4-0.866,4-1.8c1.331-0.666,2.6-1.432,3.8-2.301
			c1.2-0.865,2.4-1.831,3.6-2.899c1.2-0.932,2.366-1.932,3.5-3c1.131-1.065,2.231-2.132,3.3-3.2c2.266-2.266,4.465-4.565,6.6-6.9
			c2.131-2.331,4.2-4.766,6.2-7.3c1.065-1.2,2.065-2.399,3-3.6c0.931-1.2,1.866-2.466,2.8-3.8c1.066-1.332,2.466-3.301,4.2-5.9
			c1.731-2.6,3.065-4.565,4-5.9c0.4-0.399,0.866-0.465,1.4-0.199c0.4,0.399,0.466,0.868,0.2,1.399c-0.8,1.469-1.734,3.069-2.8,4.8
			c-1.068,1.734-2.2,3.535-3.4,5.4c-1.2,1.869-2.369,3.669-3.5,5.4c-1.134,1.734-2.168,3.269-3.1,4.6c-1.869,2.935-3.734,5.6-5.6,8
			c-2,2.669-4.069,5.135-6.2,7.4c-1.069,1.334-2.169,2.6-3.3,3.8c-1.135,1.2-2.3,2.334-3.5,3.399c-1.2,1.2-2.435,2.301-3.7,3.301
			c-1.269,1-2.634,2.031-4.1,3.1c-1.734,1.065-3.334,1.932-4.8,2.6c-0.8,0.266-1.669,0.531-2.6,0.801
			c-0.935,0.266-1.935,0.531-3,0.8h-0.6h-0.4h-0.4h-0.4h-0.4h-0.8c-0.669,0-1.269-0.069-1.8-0.2c-0.535-0.135-1.135-0.334-1.8-0.6
			c-1.069-0.535-2.134-1.335-3.2-2.4c-0.4-0.534-0.769-1.034-1.1-1.5c-0.334-0.469-0.634-1.034-0.9-1.7
			c-0.269-0.669-0.535-1.665-0.8-3c-0.269-1.331-0.4-2.331-0.4-3c0-0.931,0-1.831,0-2.7c0-0.865,0.065-1.766,0.2-2.699
			c0.266-1.731,0.531-3.432,0.8-5.101c0.266-1.665,0.531-3.3,0.8-4.899c0.4-1.601,0.8-3.2,1.2-4.801c0.4-1.6,0.866-3.199,1.4-4.8
			c0.4-1.466,0.832-3,1.3-4.6c0.465-1.601,0.965-3.132,1.5-4.601c1.065-3.065,2.065-6.1,3-9.1c0.931-3,1.865-6.031,2.8-9.1
			c0.531-1.466,1.031-3,1.5-4.601c0.466-1.6,0.9-3.131,1.3-4.6c0.4-1.466,0.8-2.932,1.2-4.4c0.4-1.466,0.8-2.931,1.2-4.399
			c0.266-0.666,0.431-1.4,0.5-2.2c0.065-0.8,0.166-1.531,0.3-2.2c0.266-0.666,0.431-1.365,0.5-2.1
			c0.065-0.731,0.166-1.432,0.3-2.101c0-0.665,0.031-1.3,0.1-1.899c0.066-0.601,0.031-1.166-0.1-1.7c0-0.666-0.068-1.065-0.2-1.2
			v-0.6h-0.2h-0.2h-0.2h-0.4c-0.8,0-1.4,0.068-1.8,0.199c-1.2,0-2.4,0.2-3.6,0.601c-1.2,0.134-2.535,0.534-4,1.2
			c-1.2,0.534-2.435,1.1-3.7,1.699c-1.269,0.601-2.569,1.301-3.9,2.101c-1.334,0.8-2.6,1.634-3.8,2.5c-1.2,0.868-2.4,1.769-3.6,2.7
			c-1.2,1.068-2.369,2.134-3.5,3.199c-1.135,1.069-2.234,2.135-3.3,3.2c-2.269,2.269-4.4,4.601-6.4,7
			c-1.069,1.2-2.034,2.4-2.9,3.601c-0.869,1.199-1.834,2.469-2.9,3.8c-0.535,0.669-1,1.3-1.4,1.899c-0.4,0.601-0.869,1.234-1.4,1.9
			c-0.4,0.669-0.834,1.334-1.3,2c-0.469,0.669-0.9,1.334-1.3,2c-1.869,2.669-3.634,5.334-5.3,8c-1.669,2.669-3.3,5.334-4.9,8
			c-1.6,2.8-3.169,5.6-4.7,8.4c-1.534,2.8-3.034,5.6-4.5,8.399c-0.8,1.469-1.569,2.9-2.3,4.3c-0.734,1.4-1.435,2.835-2.1,4.301
			c-0.134,0.269-0.334,0.8-0.6,1.6l-1.2,5.2l-0.6,2.6c-0.134,0.531-0.234,1-0.3,1.4c-0.068,0.399-0.1,0.8-0.1,1.2v0.199
			c-0.269,1.466-1.069,2.632-2.4,3.5c-1.331,0.866-2.8,1.166-4.4,0.9c-1.465-0.269-2.666-1-3.6-2.2c-0.931-1.2-1.266-2.534-1-4
			c0.135-0.669,0.234-1.2,0.3-1.6c0.069-0.4,0.1-0.866,0.1-1.4l0.6-2.8c0.135-0.932,0.269-1.865,0.4-2.8
			c0.134-0.932,0.334-1.866,0.6-2.8c0.269-1.866,0.6-3.731,1-5.601c0.4-1.865,0.734-3.731,1-5.6c0.4-1.866,0.769-3.7,1.1-5.5
			c0.334-1.8,0.7-3.632,1.1-5.5c0.4-1.866,0.8-3.7,1.2-5.5c0.4-1.8,0.734-3.632,1-5.5c1.6-7.466,3.2-14.831,4.8-22.101
			c1.6-7.266,3.331-14.565,5.2-21.899c0.8-3.731,1.631-7.432,2.5-11.101c0.865-3.665,1.766-7.3,2.7-10.899
			c0.531-1.866,1.031-3.7,1.5-5.5c0.466-1.8,0.9-3.632,1.3-5.5l3-10.8c1.065-3.731,2.1-7.4,3.1-11c1-3.601,2.1-7.2,3.3-10.801
			c0.931-3.6,2.131-7.266,3.6-11c0.266-0.531,0.465-1,0.6-1.399c0.131-0.4,0.332-0.866,0.6-1.4c0.131-0.8,0.466-1.665,1-2.6
			c0.266-0.666,0.666-1.531,1.2-2.601c0.131-0.8,0.531-1.73,1.2-2.8c1.6-3.331,3.4-6.731,5.4-10.2c0.531-0.931,1.065-1.8,1.6-2.6
			c0.531-0.8,1.131-1.6,1.8-2.4l1.8-2.399c0.266-0.4,0.6-0.766,1-1.101c0.4-0.331,0.731-0.699,1-1.1c1.332-1.6,2.931-3,4.8-4.2
			c0.931-0.665,1.9-1.266,2.9-1.8c1-0.531,2.031-0.932,3.1-1.2c0.531-0.266,1.065-0.399,1.6-0.399c0.531,0,1.131,0,1.8,0h0.4h0.2
			h0.2h0.2h1c0.8,0.269,1.465,0.534,2,0.8l1.8,1.2c0.266,0.269,0.466,0.534,0.6,0.8c0.131,0.269,0.331,0.534,0.6,0.8
			c0.531,0.935,0.931,2,1.2,3.2c0.266,0.534,0.4,1.034,0.4,1.5c0,0.469,0.065,0.969,0.2,1.5c0,0.534,0.031,1.034,0.1,1.5
			c0.065,0.469,0.1,0.969,0.1,1.5c0,1.068-0.035,2.068-0.1,3c-0.069,0.935-0.169,1.935-0.3,3c-0.135,0.935-0.234,1.868-0.3,2.8
			c-0.069,0.935-0.234,1.869-0.5,2.8c-0.134,0.534-0.2,1.034-0.2,1.5c0,0.469-0.135,0.9-0.4,1.3c0,0.27-0.034,0.5-0.1,0.7
			c-0.069,0.2-0.1,0.435-0.1,0.7l-0.4,1.4c-0.935,3.734-1.969,7.399-3.1,11c-1.134,3.6-2.369,7.199-3.7,10.8
			c-1.334,3.469-2.734,6.969-4.2,10.5c-1.469,3.534-3,7.034-4.6,10.5c-0.4,0.8-0.8,1.634-1.2,2.5c-0.4,0.868-0.8,1.7-1.2,2.5
			l-0.6,1.399c-0.269,0.27-0.535,0.669-0.8,1.2c-0.269,0.4-0.5,0.8-0.7,1.2c-0.2,0.4-0.435,0.869-0.7,1.4
			c-0.534,0.8-1,1.6-1.4,2.399s-0.869,1.601-1.4,2.4l-3,4.8c-2,3.334-4,6.568-6,9.7c-2,3.134-3.935,6.3-5.8,9.5l-3,5
			c-0.4,0.8-0.834,1.6-1.3,2.399c-0.469,0.801-0.969,1.601-1.5,2.4c-0.935,1.6-1.834,3.2-2.7,4.8c-0.869,1.601-1.7,3.269-2.5,5
			c-0.134,0.4-0.469,0.869-1,1.4c-1.068,4.8-2.1,9.568-3.1,14.3c-1,4.734-2.035,9.5-3.1,14.3L229.11,734.698z M250.911,635.898
			c-0.4,1.869-0.8,3.7-1.2,5.5s-0.8,3.635-1.2,5.5c-0.4,1.6-0.769,3.169-1.1,4.7c-0.334,1.534-0.7,3.1-1.1,4.7
			c2.131-2.666,4.2-5.332,6.2-8c2-2.666,4-5.332,6-8l6.6-9c0.266-0.4,0.5-0.801,0.7-1.2c0.2-0.4,0.431-0.731,0.7-1
			c0.266-0.531,0.531-0.932,0.8-1.2l0.6-1.2c0.531-0.8,1-1.6,1.4-2.399c0.4-0.801,0.866-1.601,1.4-2.4
			c1.731-3.331,3.366-6.666,4.9-10c1.531-3.331,3.031-6.731,4.5-10.2c1.466-3.466,2.8-6.966,4-10.5c1.2-3.531,2.266-7.1,3.2-10.7
			l0.4-1.399c0-0.266,0.031-0.466,0.1-0.601c0.065-0.131,0.1-0.331,0.1-0.6c0.131-0.531,0.231-1,0.3-1.4
			c0.066-0.399,0.166-0.865,0.3-1.399c0.4-1.731,0.6-3.531,0.6-5.4c0-0.399,0.031-0.831,0.1-1.3c0.066-0.466,0.1-0.9,0.1-1.3
			c0-0.531-0.034-1-0.1-1.4c-0.069-0.399-0.1-0.865-0.1-1.399c-0.134-0.932-0.269-1.801-0.4-2.601c-0.134-0.8-0.334-1.6-0.6-2.399
			c-0.134-0.666-0.469-1.266-1-1.801c-0.269-0.399-0.668-0.73-1.2-1h-0.8h-0.4h-0.2h-0.2c-0.8,0-1.469,0.2-2,0.601
			c-1.469,0.669-2.669,1.534-3.6,2.6c-1.2,1.2-2.269,2.469-3.2,3.8c-1.069,1.469-2,2.969-2.8,4.5c-0.8,1.535-1.6,3.101-2.4,4.7
			c-1.469,3.069-2.869,6.4-4.2,10l-1,2.601l-1,2.399c-0.269,0.935-0.568,1.835-0.9,2.7c-0.334,0.869-0.634,1.7-0.9,2.5
			c-0.669,1.734-1.234,3.469-1.7,5.2c-0.469,1.734-0.969,3.534-1.5,5.399c-1.068,3.469-2.034,7.035-2.9,10.7
			c-0.869,3.669-1.769,7.3-2.7,10.9L250.911,635.898z"/>
		<path fill="none" stroke="#22B573" stroke-width="7" stroke-miterlimit="10" d="M348.109,759.698
			c-1.069-0.134-2.269-0.669-3.6-1.6c-0.534-0.269-1.034-0.635-1.5-1.101c-0.469-0.469-0.9-0.899-1.3-1.3
			c-0.4-0.534-0.769-1.034-1.1-1.5c-0.331-0.469-0.631-0.969-0.9-1.5c-0.266-0.665-0.5-1.231-0.7-1.7
			c-0.2-0.465-0.431-0.965-0.7-1.5c-0.666-2-1.131-4.065-1.4-6.199c-0.266-2-0.4-4-0.4-6s0.069-3.932,0.2-5.801
			c0.269-1.865,0.5-3.766,0.7-5.699c0.2-1.932,0.434-3.832,0.7-5.7c0.269-1.866,0.6-3.7,1-5.5s0.8-3.632,1.2-5.5
			c0.4-1.866,0.831-3.7,1.3-5.5c0.466-1.8,0.9-3.632,1.3-5.5c1.065-3.601,2.131-7.166,3.2-10.7c1.066-3.531,2.2-7.1,3.4-10.7
			c0.666-1.731,1.266-3.466,1.8-5.2c0.531-1.73,1.131-3.465,1.8-5.199c0.266-0.932,0.6-1.832,1-2.7c0.4-0.866,0.731-1.7,1-2.5
			c0.266-0.932,0.566-1.831,0.9-2.7c0.332-0.865,0.7-1.766,1.1-2.7c0.666-1.466,1.766-2.531,3.3-3.2c1.531-0.665,3.031-0.665,4.5,0
			c1.465,0.669,2.565,1.734,3.3,3.2c0.731,1.469,0.766,3,0.1,4.601h-0.2v0.199c-0.269,0.801-0.6,1.601-1,2.4s-0.734,1.6-1,2.4
			c-0.269,0.934-0.6,1.8-1,2.6s-0.734,1.669-1,2.6c-0.668,1.601-1.334,3.234-2,4.9c-0.668,1.669-1.334,3.369-2,5.1
			c-1.2,3.469-2.4,6.9-3.6,10.301c-1.2,3.399-2.334,6.834-3.4,10.3c-1.069,3.469-2.1,6.935-3.1,10.399
			c-1,3.469-1.834,6.935-2.5,10.4c-0.8,3.334-1.4,6.8-1.8,10.4c-0.4,3.734-0.534,7.134-0.4,10.199c0.131,0.801,0.231,1.601,0.3,2.4
			c0.066,0.8,0.231,1.534,0.5,2.2c0.4,1.334,0.931,2.469,1.6,3.399c0.8,0.935,1.666,1.601,2.6,2c0.266,0.135,0.565,0.2,0.9,0.2
			c0.331,0,0.631,0.069,0.9,0.2h1h1c1.466-0.266,2.8-0.731,4-1.4c0.666-0.266,1.366-0.631,2.1-1.1c0.731-0.466,1.431-0.966,2.1-1.5
			c1.465-1.065,2.831-2.166,4.1-3.3c1.266-1.132,2.565-2.3,3.9-3.5c2.8-2.8,5.2-5.466,7.2-8c1.2-1.466,2.366-2.866,3.5-4.2
			c1.131-1.331,2.231-2.731,3.3-4.2c1.2-1.466,2.331-2.931,3.4-4.399c1.065-1.466,2.131-2.932,3.2-4.4
			c0.8-1.331,1.865-2.865,3.2-4.6c0.531-0.666,1.031-1.4,1.5-2.2c0.466-0.8,0.966-1.531,1.5-2.2v-0.2
			c0.531-0.8,1.131-0.931,1.8-0.399c0.666,0.399,0.865,1,0.6,1.8c-0.534,0.935-1,1.8-1.4,2.6s-0.869,1.601-1.4,2.4
			c-0.534,0.8-1,1.6-1.4,2.399c-0.4,0.801-0.869,1.601-1.4,2.4c-1.069,1.469-2.069,3-3,4.6c-0.935,1.601-1.935,3.135-3,4.601
			c-2.135,3.334-4.2,6.399-6.2,9.2c-1.2,1.469-2.369,2.934-3.5,4.399c-1.134,1.469-2.369,2.935-3.7,4.4
			c-1.2,1.469-2.469,2.868-3.8,4.2c-1.334,1.334-2.734,2.6-4.2,3.8c-1.734,1.466-3.4,2.665-5,3.6c-0.534,0.266-1.034,0.5-1.5,0.7
			c-0.469,0.2-0.969,0.432-1.5,0.7c-1.2,0.531-2.334,0.865-3.4,1c-0.269,0-0.534,0.031-0.8,0.1c-0.269,0.065-0.535,0.101-0.8,0.101
			h-1.8C350.509,760.299,349.31,760.099,348.109,759.698z M378.709,616.498c-2.669,0-4.869-0.899-6.6-2.699
			c-1.734-1.801-2.6-3.966-2.6-6.5c0-2.531,0.866-4.7,2.6-6.5c1.731-1.801,3.931-2.7,6.6-2.7c2.531,0,4.7,0.899,6.5,2.7
			c1.8,1.8,2.7,3.969,2.7,6.5c0,2.534-0.9,4.699-2.7,6.5C383.41,615.599,381.241,616.498,378.709,616.498z"/>
		<path fill="none" stroke="#22B573" stroke-width="7" stroke-miterlimit="10" d="M421.708,671.099c1.465-2,2.831-4,4.1-6
			c1.266-2,2.631-4,4.1-6c0.131-0.132,0.2-0.266,0.2-0.4c0-0.131,0.065-0.266,0.2-0.399c0.266-0.801,0.531-1.4,0.8-1.801
			c0-0.399,0.131-0.73,0.4-1l0.2-0.6l0.2-0.2c0-0.131,0.066-0.266,0.2-0.399c0.8-1.466,2-2.4,3.6-2.801
			c1.6-0.399,3.131-0.131,4.6,0.801c1.466,0.8,2.4,2,2.8,3.6s0.2,3.135-0.6,4.6c0-0.131-0.069-0.131-0.2,0v0.2l-0.2,0.2
			c0,0.135-0.134,0.334-0.4,0.6c-0.135,0.27-0.234,0.5-0.3,0.7c-0.069,0.2-0.168,0.435-0.3,0.7l-1.2,3c-0.8,2-1.4,4.068-1.8,6.2
			c-0.535,2.134-0.869,4.269-1,6.399c-0.134,2.135-0.134,4.335,0,6.601c0.266,4.399,1.065,8.669,2.4,12.8
			c0.131,0.669,0.266,1.234,0.4,1.7c0.131,0.469,0.332,0.969,0.6,1.5l0.4,0.8l0.4,1l0.6,1.8c0.931,2.4,1.731,4.8,2.4,7.2
			c1.466,5.2,2.2,10.334,2.2,15.4c0,1.068-0.034,2.399-0.1,4c-0.069,1.6-0.168,2.934-0.3,4l18.2-26.801
			c0.266-0.531,0.666-1,1.2-1.399c0.531-0.4,1-0.466,1.4-0.2c1.2,0.8,1.4,1.734,0.6,2.8l-26.4,37.8
			c-0.535,0.535-0.935,0.801-1.2,0.801c-0.269,0.399-0.734,0.934-1.4,1.6c-1.069,1.068-2.134,2-3.2,2.8
			c-1.068,0.8-2.269,1.531-3.6,2.2c-2.135,1.065-4.669,1.932-7.6,2.6c-2.669,0.4-5.269,0.601-7.8,0.601c-2.8,0-5.469-0.4-8-1.2
			c-1.334-0.4-2.6-0.935-3.8-1.6c-1.2-0.669-2.334-1.4-3.4-2.2c-2.269-1.601-4.069-3.601-5.4-6c-1.466-2-2.531-4.4-3.2-7.2
			c-0.666-2.131-1.131-4.666-1.4-7.6c0-1.332,0-2.601,0-3.801c0-1.199,0.069-2.465,0.2-3.8c0.669-5.2,1.935-10,3.8-14.399
			c0.269-0.666,0.5-1.266,0.7-1.801c0.2-0.531,0.435-1.065,0.7-1.6c0.266-0.4,0.531-1,0.8-1.8l1-1.601c0.531-1.065,1.5-2.6,2.9-4.6
			c1.4-2,2.431-3.531,3.1-4.6l2.2-2.801l2.2-3l4-5.8l4.6-5.6L421.708,671.099z M398.308,711.498c-0.8,2.27-1.469,4.535-2,6.801
			c-0.531,2.269-0.865,4.534-1,6.8c-0.131,2.399-0.131,4.669,0,6.8c0.135,1.2,0.334,2.369,0.6,3.5c0.269,1.135,0.535,2.234,0.8,3.3
			c0.4,1.069,0.831,2.069,1.3,3c0.466,0.935,1.031,1.869,1.7,2.8c1.2,1.734,2.666,3.2,4.4,4.4c0.931,0.669,1.866,1.2,2.8,1.6
			c0.931,0.4,1.931,0.734,3,1c1.731,0.535,3.866,0.801,6.4,0.801c1.066,0,2.131-0.066,3.2-0.2c1.065-0.132,2.131-0.331,3.2-0.601
			c2.131-0.531,4.131-1.331,6-2.399c1.731-0.932,3.266-2.2,4.6-3.8c1.2-1.332,2.266-3.066,3.2-5.2c1.6-3.731,2.266-7.932,2-12.601
			c-0.134-1.065-0.234-2.165-0.3-3.3c-0.069-1.131-0.234-2.231-0.5-3.3c-0.269-1.065-0.535-2.166-0.8-3.3
			c-0.269-1.132-0.534-2.231-0.8-3.3c-0.4-1.066-0.8-2.132-1.2-3.2c-0.4-1.065-0.8-2.132-1.2-3.2c-0.135-0.531-0.4-1.065-0.8-1.6
			l-0.2-0.801l-0.4-0.8c-0.269-0.665-0.534-1.266-0.8-1.8c-0.269-0.531-0.534-1.131-0.8-1.8c-2.135-4.932-3.469-10-4-15.2
			c-0.535-5.065-0.4-10.331,0.4-15.8c0.131-0.666,0.231-1.231,0.3-1.7c0.066-0.466,0.166-1.031,0.3-1.7l-4.4,5.601
			c-0.668,1.068-1.334,2.068-2,3c-0.668,0.934-1.334,1.868-2,2.8l-4.4,6l-4.2,6l-4,6c-0.8,0.935-1.8,2.368-3,4.3
			c-1.2,1.935-2.069,3.435-2.6,4.5l-0.8,1.8c-0.134,0.269-0.269,0.534-0.4,0.8c-0.134,0.27-0.269,0.535-0.4,0.801
			c-0.269,0.534-0.469,1.034-0.6,1.5C398.773,710.268,398.573,710.833,398.308,711.498z"/>
		<path fill="none" stroke="#22B573" stroke-width="7" stroke-miterlimit="10" d="M562.507,671.099c1.466-2,2.831-4,4.1-6
			c1.266-2,2.632-4,4.101-6c0.131-0.132,0.199-0.266,0.199-0.4c0-0.131,0.066-0.266,0.2-0.399c0.266-0.801,0.531-1.4,0.8-1.801
			c0-0.399,0.132-0.73,0.4-1l0.2-0.6l0.2-0.2c0-0.131,0.065-0.266,0.199-0.399c0.801-1.466,2-2.4,3.601-2.801
			c1.6-0.399,3.131-0.131,4.6,0.801c1.466,0.8,2.4,2,2.8,3.6c0.4,1.6,0.2,3.135-0.6,4.6c0-0.131-0.068-0.131-0.2,0v0.2l-0.2,0.2
			c0,0.135-0.134,0.334-0.399,0.6c-0.135,0.27-0.234,0.5-0.3,0.7c-0.069,0.2-0.169,0.435-0.301,0.7l-1.199,3
			c-0.801,2-1.4,4.068-1.801,6.2c-0.534,2.134-0.868,4.269-1,6.399c-0.134,2.135-0.134,4.335,0,6.601
			c0.266,4.399,1.066,8.669,2.4,12.8c0.131,0.669,0.266,1.234,0.4,1.7c0.131,0.469,0.331,0.969,0.6,1.5l0.4,0.8l0.399,1l0.601,1.8
			c0.931,2.4,1.73,4.8,2.399,7.2c1.466,5.2,2.2,10.334,2.2,15.4c0,1.068-0.034,2.399-0.1,4c-0.069,1.6-0.169,2.934-0.301,4
			l18.2-26.801c0.266-0.531,0.666-1,1.2-1.399c0.531-0.4,1-0.466,1.4-0.2c1.199,0.8,1.399,1.734,0.6,2.8l-26.4,37.8
			c-0.534,0.535-0.934,0.801-1.199,0.801c-0.27,0.399-0.734,0.934-1.4,1.6c-1.068,1.068-2.135,2-3.2,2.8
			c-1.068,0.8-2.269,1.531-3.6,2.2c-2.135,1.065-4.669,1.932-7.601,2.6c-2.668,0.4-5.269,0.601-7.8,0.601c-2.8,0-5.469-0.4-8-1.2
			c-1.334-0.4-2.6-0.935-3.8-1.6c-1.2-0.669-2.334-1.4-3.4-2.2c-2.269-1.601-4.068-3.601-5.399-6c-1.466-2-2.531-4.4-3.2-7.2
			c-0.666-2.131-1.131-4.666-1.4-7.6c0-1.332,0-2.601,0-3.801c0-1.199,0.069-2.465,0.2-3.8c0.669-5.2,1.935-10,3.8-14.399
			c0.27-0.666,0.5-1.266,0.7-1.801c0.2-0.531,0.435-1.065,0.7-1.6c0.266-0.4,0.531-1,0.8-1.8l1-1.601c0.531-1.065,1.5-2.6,2.9-4.6
			c1.399-2,2.431-3.531,3.1-4.6l2.2-2.801l2.2-3l4-5.8l4.6-5.6L562.507,671.099z M539.106,711.498c-0.8,2.27-1.469,4.535-2,6.801
			c-0.531,2.269-0.865,4.534-1,6.8c-0.131,2.399-0.131,4.669,0,6.8c0.135,1.2,0.335,2.369,0.601,3.5
			c0.269,1.135,0.534,2.234,0.8,3.3c0.399,1.069,0.831,2.069,1.3,3c0.466,0.935,1.031,1.869,1.7,2.8c1.2,1.734,2.665,3.2,4.399,4.4
			c0.932,0.669,1.866,1.2,2.801,1.6c0.931,0.4,1.931,0.734,3,1c1.73,0.535,3.865,0.801,6.399,0.801c1.065,0,2.132-0.066,3.2-0.2
			c1.065-0.132,2.131-0.331,3.2-0.601c2.131-0.531,4.131-1.331,6-2.399c1.731-0.932,3.266-2.2,4.6-3.8
			c1.2-1.332,2.266-3.066,3.2-5.2c1.6-3.731,2.266-7.932,2-12.601c-0.135-1.065-0.234-2.165-0.3-3.3
			c-0.069-1.131-0.234-2.231-0.5-3.3c-0.269-1.065-0.534-2.166-0.8-3.3c-0.27-1.132-0.535-2.231-0.801-3.3
			c-0.399-1.066-0.8-2.132-1.199-3.2c-0.4-1.065-0.801-2.132-1.2-3.2c-0.135-0.531-0.4-1.065-0.8-1.6l-0.2-0.801l-0.4-0.8
			c-0.269-0.665-0.534-1.266-0.8-1.8c-0.269-0.531-0.534-1.131-0.8-1.8c-2.135-4.932-3.469-10-4-15.2
			c-0.534-5.065-0.4-10.331,0.399-15.8c0.132-0.666,0.231-1.231,0.301-1.7c0.065-0.466,0.165-1.031,0.3-1.7l-4.4,5.601
			c-0.669,1.068-1.334,2.068-2,3c-0.669,0.934-1.334,1.868-2,2.8l-4.399,6l-4.2,6l-4,6c-0.8,0.935-1.8,2.368-3,4.3
			c-1.2,1.935-2.069,3.435-2.601,4.5l-0.8,1.8c-0.134,0.269-0.269,0.534-0.399,0.8c-0.135,0.27-0.27,0.535-0.4,0.801
			c-0.269,0.534-0.469,1.034-0.6,1.5C539.572,710.268,539.372,710.833,539.106,711.498z"/>
		<path fill="none" stroke="#22B573" stroke-width="7" stroke-miterlimit="10" d="M611.307,734.698c0,0.135-0.035,0.234-0.1,0.3
			c-0.069,0.069-0.101,0.169-0.101,0.301c0.132-0.132,0.2-0.266,0.2-0.4c0-0.131,0.065-0.266,0.199-0.4
			c1.467-2.931,2.9-5.831,4.301-8.699c1.4-2.866,2.831-5.7,4.3-8.5c1.466-2.932,2.966-5.801,4.5-8.601
			c1.531-2.8,3.165-5.531,4.899-8.2l2.4-4.199c0.531-0.666,1-1.366,1.4-2.101c0.4-0.731,0.8-1.431,1.199-2.1
			c0.932-1.331,1.832-2.666,2.701-4c0.865-1.331,1.83-2.666,2.899-4c0.931-1.331,1.866-2.632,2.8-3.9
			c0.932-1.266,1.932-2.565,3-3.899c2-2.531,4.131-5.066,6.4-7.601c2.131-2.531,4.531-4.931,7.199-7.2
			c2.531-2.266,5.4-4.331,8.601-6.199c0.8-0.4,1.601-0.801,2.399-1.2c0.801-0.4,1.666-0.731,2.601-1c0.931-0.4,1.866-0.7,2.8-0.9
			c0.932-0.2,1.865-0.431,2.801-0.7c0.531,0,1.031-0.031,1.5-0.1c0.465-0.065,0.965-0.1,1.5-0.1h0.799h0.201h0.199h0.4h0.199
			c0.801,0,1.467,0.068,2,0.199c0.4,0.135,1.132,0.335,2.201,0.601c0.399,0.134,0.766,0.269,1.1,0.399
			c0.331,0.135,0.699,0.335,1.1,0.601c0.531,0.399,1.2,1,2,1.8c0.801,0.8,1.332,1.4,1.6,1.8c0.4,0.669,0.701,1.335,0.9,2
			c0.2,0.669,0.432,1.335,0.7,2c0.399,1.2,0.601,2.335,0.601,3.4c0.131,2.134,0.131,4.134,0,6c-0.135,0.935-0.27,1.834-0.4,2.7
			c-0.135,0.868-0.27,1.699-0.4,2.5c-0.269,0.934-0.469,1.8-0.6,2.6c-0.135,0.8-0.334,1.6-0.6,2.4l-3,9.6
			c-0.535,1.469-1.069,2.969-1.601,4.5c-0.534,1.534-1.134,3.034-1.8,4.5c-1.068,3.068-2.2,6.068-3.4,9
			c-1.199,2.935-2.334,5.935-3.4,9c-1.199,2.935-2.299,5.869-3.299,8.8c-1,2.935-1.969,5.935-2.9,9
			c-1.068,3.069-1.801,5.935-2.2,8.601c-0.134,0.8-0.234,1.534-0.3,2.199c-0.068,0.669-0.1,1.335-0.1,2c0,1.2,0.131,2.335,0.399,3.4
			c0.132,0.269,0.2,0.469,0.2,0.6c0,0.135,0.065,0.27,0.199,0.4l0.601,0.6c0.132,0,0.3,0.035,0.5,0.101c0.2,0.068,0.431,0.1,0.7,0.1
			c0,0.135,0.131,0.2,0.4,0.2h0.199h0.2h0.2h0.199h0.4c0.666-0.131,1.266-0.231,1.801-0.3c0.531-0.065,1.131-0.231,1.799-0.5
			c1.066-0.266,2.4-0.866,4-1.8c1.332-0.666,2.601-1.432,3.801-2.301c1.199-0.865,2.4-1.831,3.6-2.899c1.2-0.932,2.365-1.932,3.5-3
			c1.131-1.065,2.231-2.132,3.301-3.2c2.266-2.266,4.465-4.565,6.6-6.9c2.131-2.331,4.199-4.766,6.199-7.3
			c1.066-1.2,2.066-2.399,3-3.6c0.932-1.2,1.866-2.466,2.801-3.8c1.065-1.332,2.465-3.301,4.199-5.9c1.732-2.6,3.066-4.565,4-5.9
			c0.4-0.399,0.866-0.465,1.4-0.199c0.4,0.399,0.466,0.868,0.2,1.399c-0.8,1.469-1.734,3.069-2.8,4.8
			c-1.068,1.734-2.2,3.535-3.4,5.4c-1.199,1.869-2.369,3.669-3.5,5.4c-1.135,1.734-2.168,3.269-3.1,4.6
			c-1.869,2.935-3.734,5.6-5.6,8c-2,2.669-4.069,5.135-6.201,7.4c-1.068,1.334-2.168,2.6-3.299,3.8
			c-1.135,1.2-2.301,2.334-3.5,3.399c-1.201,1.2-2.436,2.301-3.701,3.301c-1.268,1-2.634,2.031-4.1,3.1
			c-1.734,1.065-3.334,1.932-4.8,2.6c-0.8,0.266-1.669,0.531-2.601,0.801c-0.934,0.266-1.934,0.531-3,0.8h-0.6h-0.4h-0.399h-0.399
			h-0.4h-0.801c-0.668,0-1.268-0.069-1.799-0.2c-0.535-0.135-1.135-0.334-1.801-0.6c-1.068-0.535-2.135-1.335-3.199-2.4
			c-0.4-0.534-0.77-1.034-1.101-1.5c-0.335-0.469-0.634-1.034-0.899-1.7c-0.27-0.669-0.535-1.665-0.801-3
			c-0.269-1.331-0.4-2.331-0.4-3c0-0.931,0-1.831,0-2.7c0-0.865,0.066-1.766,0.201-2.699c0.266-1.731,0.531-3.432,0.799-5.101
			c0.266-1.665,0.531-3.3,0.801-4.899c0.4-1.601,0.8-3.2,1.199-4.801c0.4-1.6,0.866-3.199,1.4-4.8c0.4-1.466,0.832-3,1.301-4.6
			c0.465-1.601,0.965-3.132,1.5-4.601c1.064-3.065,2.064-6.1,3-9.1c0.931-3,1.865-6.031,2.799-9.1c0.531-1.466,1.031-3,1.5-4.601
			c0.467-1.6,0.9-3.131,1.301-4.6c0.4-1.466,0.8-2.932,1.199-4.4c0.4-1.466,0.801-2.931,1.201-4.399c0.266-0.666,0.431-1.4,0.5-2.2
			c0.064-0.8,0.165-1.531,0.299-2.2c0.266-0.666,0.432-1.365,0.5-2.1c0.066-0.731,0.166-1.432,0.301-2.101
			c0-0.665,0.031-1.3,0.1-1.899c0.066-0.601,0.031-1.166-0.1-1.7c0-0.666-0.068-1.065-0.2-1.2v-0.6h-0.2h-0.199h-0.201h-0.399
			c-0.8,0-1.399,0.068-1.8,0.199c-1.2,0-2.4,0.2-3.6,0.601c-1.201,0.134-2.535,0.534-4,1.2c-1.201,0.534-2.436,1.1-3.701,1.699
			c-1.268,0.601-2.568,1.301-3.899,2.101c-1.335,0.8-2.601,1.634-3.8,2.5c-1.2,0.868-2.4,1.769-3.6,2.7
			c-1.201,1.068-2.369,2.134-3.5,3.199c-1.135,1.069-2.234,2.135-3.301,3.2c-2.269,2.269-4.4,4.601-6.4,7
			c-1.068,1.2-2.033,2.4-2.899,3.601c-0.868,1.199-1.835,2.469-2.899,3.8c-0.535,0.669-1,1.3-1.4,1.899
			c-0.4,0.601-0.869,1.234-1.4,1.9c-0.4,0.669-0.834,1.334-1.3,2c-0.469,0.669-0.899,1.334-1.3,2c-1.869,2.669-3.635,5.334-5.301,8
			c-1.668,2.669-3.299,5.334-4.899,8c-1.601,2.8-3.169,5.6-4.7,8.4c-1.534,2.8-3.034,5.6-4.5,8.399c-0.8,1.469-1.568,2.9-2.3,4.3
			c-0.734,1.4-1.435,2.835-2.101,4.301c-0.134,0.269-0.334,0.8-0.6,1.6l-1.199,5.2l-0.601,2.6c-0.134,0.531-0.234,1-0.3,1.4
			c-0.068,0.399-0.1,0.8-0.1,1.2v0.199c-0.27,1.466-1.069,2.632-2.4,3.5c-1.332,0.866-2.801,1.166-4.4,0.9
			c-1.465-0.269-2.666-1-3.6-2.2c-0.932-1.2-1.266-2.534-1-4c0.135-0.669,0.234-1.2,0.3-1.6c0.069-0.4,0.101-0.866,0.101-1.4
			l0.6-2.8c0.135-0.932,0.269-1.865,0.4-2.8c0.134-0.932,0.334-1.866,0.6-2.8c0.269-1.866,0.6-3.731,1-5.601
			c0.4-1.865,0.734-3.731,1-5.6c0.4-1.866,0.769-3.7,1.1-5.5c0.334-1.8,0.7-3.632,1.1-5.5c0.4-1.866,0.801-3.7,1.201-5.5
			c0.399-1.8,0.734-3.632,1-5.5c1.6-7.466,3.199-14.831,4.799-22.101c1.601-7.266,3.332-14.565,5.201-21.899
			c0.799-3.731,1.631-7.432,2.5-11.101c0.865-3.665,1.766-7.3,2.699-10.899c0.531-1.866,1.031-3.7,1.5-5.5
			c0.466-1.8,0.9-3.632,1.301-5.5l3-10.8c1.064-3.731,2.1-7.4,3.1-11c1-3.601,2.1-7.2,3.3-10.801c0.931-3.6,2.132-7.266,3.601-11
			c0.266-0.531,0.465-1,0.6-1.399c0.131-0.4,0.331-0.866,0.6-1.4c0.131-0.8,0.466-1.665,1-2.6c0.266-0.666,0.666-1.531,1.2-2.601
			c0.132-0.8,0.531-1.73,1.2-2.8c1.6-3.331,3.4-6.731,5.4-10.2c0.531-0.931,1.064-1.8,1.6-2.6c0.531-0.8,1.131-1.6,1.8-2.4
			l1.8-2.399c0.266-0.4,0.6-0.766,1-1.101c0.4-0.331,0.731-0.699,1-1.1c1.332-1.6,2.932-3,4.801-4.2
			c0.931-0.665,1.899-1.266,2.899-1.8c1-0.531,2.031-0.932,3.101-1.2c0.531-0.266,1.064-0.399,1.6-0.399c0.531,0,1.131,0,1.8,0
			h0.399h0.201h0.199h0.2h1c0.8,0.269,1.466,0.534,2,0.8l1.8,1.2c0.266,0.269,0.466,0.534,0.6,0.8
			c0.132,0.269,0.332,0.534,0.601,0.8c0.531,0.935,0.931,2,1.2,3.2c0.266,0.534,0.4,1.034,0.4,1.5c0,0.469,0.064,0.969,0.199,1.5
			c0,0.534,0.031,1.034,0.1,1.5c0.066,0.469,0.101,0.969,0.101,1.5c0,1.068-0.034,2.068-0.101,3c-0.068,0.935-0.168,1.935-0.299,3
			c-0.135,0.935-0.234,1.868-0.301,2.8c-0.068,0.935-0.234,1.869-0.5,2.8c-0.135,0.534-0.199,1.034-0.199,1.5
			c0,0.469-0.135,0.9-0.4,1.3c0,0.27-0.035,0.5-0.1,0.7c-0.069,0.2-0.101,0.435-0.101,0.7l-0.399,1.4
			c-0.936,3.734-1.969,7.399-3.101,11c-1.134,3.6-2.368,7.199-3.7,10.8c-1.334,3.469-2.734,6.969-4.199,10.5
			c-1.469,3.534-3,7.034-4.601,10.5c-0.399,0.8-0.8,1.634-1.2,2.5c-0.4,0.868-0.8,1.7-1.199,2.5l-0.601,1.399
			c-0.269,0.27-0.534,0.669-0.8,1.2c-0.27,0.4-0.5,0.8-0.7,1.2s-0.435,0.869-0.7,1.4c-0.534,0.8-1,1.6-1.4,2.399
			c-0.399,0.8-0.868,1.601-1.399,2.4l-3,4.8c-2,3.334-4,6.568-6,9.7c-2,3.134-3.935,6.3-5.8,9.5l-3,5
			c-0.4,0.8-0.834,1.6-1.301,2.399c-0.469,0.801-0.969,1.601-1.5,2.4c-0.934,1.6-1.834,3.2-2.699,4.8c-0.869,1.601-1.7,3.269-2.5,5
			c-0.135,0.4-0.469,0.869-1,1.4c-1.068,4.8-2.1,9.568-3.1,14.3c-1,4.734-2.035,9.5-3.101,14.3L611.307,734.698z M633.106,635.898
			c-0.399,1.869-0.8,3.7-1.2,5.5s-0.8,3.635-1.199,5.5c-0.4,1.6-0.77,3.169-1.101,4.7c-0.335,1.534-0.7,3.1-1.101,4.7
			c2.132-2.666,4.201-5.332,6.201-8c2-2.666,4-5.332,6-8l6.6-9c0.266-0.4,0.5-0.801,0.699-1.2c0.201-0.4,0.432-0.731,0.701-1
			c0.266-0.531,0.531-0.932,0.799-1.2l0.601-1.2c0.531-0.8,1-1.6,1.399-2.399c0.4-0.801,0.866-1.601,1.4-2.4
			c1.731-3.331,3.365-6.666,4.9-10c1.531-3.331,3.031-6.731,4.5-10.2c1.465-3.466,2.8-6.966,4-10.5
			c1.199-3.531,2.266-7.1,3.199-10.7l0.4-1.399c0-0.266,0.031-0.466,0.1-0.601c0.066-0.131,0.101-0.331,0.101-0.6
			c0.132-0.531,0.231-1,0.3-1.4c0.066-0.399,0.166-0.865,0.301-1.399c0.399-1.731,0.6-3.531,0.6-5.4c0-0.399,0.031-0.831,0.1-1.3
			c0.066-0.466,0.1-0.9,0.1-1.3c0-0.531-0.033-1-0.1-1.4c-0.068-0.399-0.1-0.865-0.1-1.399c-0.135-0.932-0.27-1.801-0.4-2.601
			c-0.135-0.8-0.334-1.6-0.6-2.399c-0.135-0.666-0.469-1.266-1-1.801c-0.27-0.399-0.669-0.73-1.2-1h-0.8h-0.4h-0.199h-0.201
			c-0.799,0-1.469,0.2-2,0.601c-1.469,0.669-2.668,1.534-3.6,2.6c-1.199,1.2-2.269,2.469-3.199,3.8c-1.069,1.469-2,2.969-2.801,4.5
			c-0.8,1.535-1.6,3.101-2.4,4.7c-1.469,3.069-2.868,6.4-4.199,10l-1,2.601l-1,2.399c-0.27,0.935-0.568,1.835-0.9,2.7
			c-0.334,0.869-0.635,1.7-0.9,2.5c-0.668,1.734-1.234,3.469-1.699,5.2c-0.469,1.734-0.969,3.534-1.5,5.399
			c-1.068,3.469-2.035,7.035-2.9,10.7c-0.869,3.669-1.769,7.3-2.699,10.9L633.106,635.898z"/>
		<path fill="none" stroke="#22B573" stroke-width="7" stroke-miterlimit="10" d="M730.306,759.698
			c-1.069-0.134-2.269-0.669-3.601-1.6c-0.533-0.269-1.033-0.635-1.5-1.101c-0.469-0.469-0.899-0.899-1.299-1.3
			c-0.4-0.534-0.77-1.034-1.101-1.5c-0.331-0.469-0.632-0.969-0.899-1.5c-0.266-0.665-0.5-1.231-0.701-1.7
			c-0.199-0.465-0.431-0.965-0.699-1.5c-0.666-2-1.131-4.065-1.4-6.199c-0.266-2-0.4-4-0.4-6s0.069-3.932,0.201-5.801
			c0.268-1.865,0.5-3.766,0.699-5.699c0.2-1.932,0.435-3.832,0.7-5.7c0.269-1.866,0.601-3.7,1-5.5s0.8-3.632,1.2-5.5
			c0.4-1.866,0.831-3.7,1.3-5.5c0.466-1.8,0.899-3.632,1.3-5.5c1.066-3.601,2.131-7.166,3.2-10.7c1.065-3.531,2.2-7.1,3.399-10.7
			c0.666-1.731,1.266-3.466,1.801-5.2c0.531-1.73,1.131-3.465,1.8-5.199c0.266-0.932,0.601-1.832,1-2.7c0.399-0.866,0.731-1.7,1-2.5
			c0.266-0.932,0.565-1.831,0.899-2.7c0.332-0.865,0.701-1.766,1.101-2.7c0.665-1.466,1.766-2.531,3.3-3.2
			c1.531-0.665,3.031-0.665,4.5,0c1.466,0.669,2.566,1.734,3.301,3.2c0.73,1.469,0.766,3,0.1,4.601h-0.2v0.199
			c-0.269,0.801-0.601,1.601-1,2.4s-0.734,1.6-1,2.4c-0.269,0.934-0.601,1.8-1,2.6s-0.734,1.669-1,2.6
			c-0.669,1.601-1.335,3.234-2,4.9c-0.669,1.669-1.335,3.369-2,5.1c-1.2,3.469-2.399,6.9-3.601,10.301
			c-1.199,3.399-2.334,6.834-3.399,10.3c-1.069,3.469-2.101,6.935-3.101,10.399c-1,3.469-1.834,6.935-2.5,10.4
			c-0.799,3.334-1.399,6.8-1.799,10.4c-0.4,3.734-0.535,7.134-0.4,10.199c0.131,0.801,0.23,1.601,0.3,2.4
			c0.065,0.8,0.231,1.534,0.5,2.2c0.399,1.334,0.931,2.469,1.601,3.399c0.799,0.935,1.665,1.601,2.6,2
			c0.266,0.135,0.565,0.2,0.9,0.2c0.33,0,0.631,0.069,0.899,0.2h1h1c1.466-0.266,2.8-0.731,4-1.4c0.665-0.266,1.366-0.631,2.101-1.1
			c0.73-0.466,1.431-0.966,2.1-1.5c1.465-1.065,2.831-2.166,4.1-3.3c1.266-1.132,2.566-2.3,3.9-3.5c2.8-2.8,5.199-5.466,7.199-8
			c1.201-1.466,2.366-2.866,3.5-4.2c1.132-1.331,2.232-2.731,3.301-4.2c1.199-1.466,2.331-2.931,3.4-4.399
			c1.064-1.466,2.131-2.932,3.199-4.4c0.801-1.331,1.865-2.865,3.2-4.6c0.531-0.666,1.031-1.4,1.5-2.2
			c0.466-0.8,0.966-1.531,1.5-2.2v-0.2c0.531-0.8,1.132-0.931,1.8-0.399c0.666,0.399,0.865,1,0.6,1.8c-0.533,0.935-1,1.8-1.399,2.6
			s-0.868,1.601-1.399,2.4c-0.535,0.8-1,1.6-1.4,2.399c-0.4,0.801-0.869,1.601-1.4,2.4c-1.068,1.469-2.068,3-3,4.6
			c-0.934,1.601-1.934,3.135-3,4.601c-2.135,3.334-4.199,6.399-6.199,9.2c-1.201,1.469-2.369,2.934-3.5,4.399
			c-1.135,1.469-2.369,2.935-3.701,4.4c-1.199,1.469-2.469,2.868-3.799,4.2c-1.335,1.334-2.734,2.6-4.201,3.8
			c-1.734,1.466-3.399,2.665-5,3.6c-0.533,0.266-1.033,0.5-1.5,0.7c-0.469,0.2-0.969,0.432-1.5,0.7
			c-1.199,0.531-2.334,0.865-3.399,1c-0.269,0-0.534,0.031-0.8,0.1c-0.27,0.065-0.535,0.101-0.801,0.101h-1.799
			C732.705,760.299,731.506,760.099,730.306,759.698z M759.105,624.099c-2.668,0-4.869-0.9-6.6-2.7c-1.734-1.8-2.6-3.966-2.6-6.5
			c0-2.531,0.865-4.7,2.6-6.5c1.73-1.8,3.932-2.7,6.6-2.7c2.531,0,4.7,0.9,6.5,2.7c1.801,1.8,2.7,3.969,2.7,6.5
			c0,2.534-0.899,4.7-2.7,6.5C763.806,623.198,761.637,624.099,759.105,624.099z M790.906,689.898
			c-0.135,0.935-0.201,1.834-0.201,2.7c0,0.868,0,1.769,0,2.7c-0.134,2.269-0.199,4.5-0.199,6.699c0,2.2,0,4.435,0,6.7
			c0.131,2.269,0.266,4.5,0.4,6.7c0.131,2.2,0.33,4.369,0.6,6.5c0.131,1.068,0.266,2.135,0.4,3.2c0.131,1.068,0.33,2.134,0.6,3.2
			c0.266,1.068,0.531,2.1,0.8,3.1c0.266,1,0.531,2.034,0.8,3.1c0.266,1.069,0.566,2.069,0.9,3c0.331,0.935,0.766,1.869,1.3,2.801
			c0.931,2.134,1.931,3.8,3,5c1.331,1.6,2.665,2.8,4,3.6c1.2,0.935,2.8,1.6,4.8,2c0.531,0.135,1.466,0.2,2.801,0.2
			c0.399,0,0.83,0,1.299,0c0.467,0,0.967-0.065,1.5-0.2c1.601-0.131,3.4-0.666,5.4-1.6c0.932-0.4,1.801-0.866,2.6-1.4
			c0.801-0.531,1.601-1.131,2.4-1.8c0.801-0.666,1.6-1.366,2.4-2.101c0.8-0.73,1.6-1.5,2.4-2.3c2.665-3.065,5.266-6.6,7.799-10.6
			c1.201-1.866,2.301-3.8,3.301-5.8s2.031-4.066,3.1-6.2c0.801-1.731,1.666-3.8,2.6-6.2c0.531-0.8,1-1.865,1.4-3.2
			c0.131-0.266,0.332-0.8,0.6-1.6c0.266-0.531,0.4-1.065,0.4-1.601c0.531-1.331,1.4-1.73,2.6-1.199
			c1.201,0.269,1.666,1.068,1.4,2.399c-0.268,0.8-0.4,1.4-0.4,1.8c-0.133,0.27-0.334,0.801-0.6,1.601
			c-0.135,0.669-0.268,1.234-0.4,1.7c-0.133,0.469-0.334,1.034-0.6,1.699c-0.668,2.27-1.469,4.469-2.4,6.601
			c-0.799,2.269-1.668,4.469-2.6,6.6c-0.934,2.135-1.934,4.269-3,6.4c-1.334,2.269-2.6,4.334-3.8,6.2c-1.2,2-2.601,4-4.2,6
			c-0.8,0.934-1.6,1.868-2.4,2.8c-0.799,0.935-1.734,1.8-2.799,2.6c-1.601,1.601-3.67,3.132-6.201,4.601
			c-2.533,1.331-5.068,2.266-7.6,2.8c-0.668,0.266-1.369,0.399-2.1,0.399c-0.734,0-1.435,0.066-2.1,0.2
			c-0.67,0-1.369-0.034-2.101-0.1c-0.734-0.069-1.435-0.101-2.101-0.101c-2.799-0.399-5.469-1.334-8-2.8
			c-2.533-1.334-4.734-3.068-6.6-5.2c-2-2.131-3.534-4.331-4.6-6.6c-0.669-1.065-1.27-2.2-1.801-3.4c-0.533-1.199-1-2.399-1.399-3.6
			c-1.069-2.531-1.868-4.865-2.399-7c-0.27-1.2-0.5-2.4-0.701-3.6c-0.199-1.2-0.434-2.4-0.699-3.601c-0.535-2.399-0.9-4.8-1.1-7.2
			c-0.201-2.399-0.369-4.8-0.5-7.199c-0.27-2.4-0.4-4.801-0.4-7.2c0-2.4,0.065-4.8,0.199-7.2c0.132-4.666,0.366-9.365,0.701-14.1
			c0.33-4.731,0.83-9.432,1.5-14.101c0.266-2.266,0.564-4.6,0.899-7c0.331-2.399,0.7-4.731,1.101-7
			c0.399-2.266,0.83-4.565,1.299-6.899c0.467-2.332,0.967-4.632,1.5-6.9c0.531-2.4,1.066-4.831,1.601-7.3
			c0.531-2.466,1.132-4.9,1.8-7.3l-30.6-1c-1.6,0.134-3-0.366-4.2-1.5c-1.2-1.132-1.8-2.566-1.8-4.301
			c-0.135-1.73,0.365-3.165,1.5-4.3c1.131-1.131,2.565-1.766,4.3-1.899h0.2l33,4.399c0.266-0.665,0.5-1.331,0.699-2
			c0.201-0.665,0.432-1.331,0.701-2c1.465-4.531,3-9.031,4.6-13.5c1.6-4.466,3.331-8.831,5.199-13.1
			c1.866-4.132,4.066-8.4,6.601-12.8c1.331-2.132,2.665-4.166,4-6.101c1.331-1.931,2.866-3.831,4.601-5.7
			c1.6-2,3.399-3.8,5.399-5.399c0.665-0.4,1.231-0.8,1.7-1.2c0.465-0.4,1.031-0.731,1.699-1c1.201-0.8,2.467-1.4,3.801-1.8
			c0.666-0.266,1.365-0.466,2.1-0.601c0.731-0.131,1.432-0.199,2.1-0.199h0.4h0.2h0.399h0.201c0.266,0,0.465,0.034,0.6,0.1
			c0.131,0.068,0.331,0.1,0.6,0.1c1.066,0.27,1.865,0.535,2.4,0.801c1.066,0.534,1.801,1.068,2.199,1.6c0.4,0.4,0.867,1,1.4,1.8
			c0.666,1.2,1.131,2.601,1.4,4.2c0.131,0.669,0.199,1.3,0.199,1.9c0,0.6,0,1.234,0,1.899c0,0.669-0.033,1.269-0.1,1.8
			c-0.068,0.535-0.1,1.135-0.1,1.801l-1.199,7.199c-0.27,1.069-0.57,2.2-0.9,3.4c-0.334,1.2-0.635,2.334-0.9,3.4
			c-0.27,0.668-0.434,1.234-0.5,1.699c-0.068,0.469-0.234,1.035-0.5,1.7c-0.27,0.669-0.469,1.234-0.6,1.7
			c-0.135,0.469-0.27,1.034-0.4,1.7c-1.469,4.399-3,8.769-4.6,13.1c-1.601,4.335-3.27,8.635-5,12.9
			c-0.27,0.669-0.469,1.234-0.601,1.7c-0.134,0.469-0.335,0.969-0.601,1.5l87.801,1.8c1.332,0,2,0.669,2,2
			c-0.27,1.2-0.934,1.8-2,1.8l-90.801,1.8c-1.068,2.534-2.168,5.069-3.299,7.601c-1.135,2.534-2.301,5.068-3.5,7.6
			c-1.869,4.269-3.835,8.469-5.9,12.6c-2.068,4.135-4.234,8.27-6.5,12.4c-1.068,2.135-2.169,4.234-3.301,6.3
			c-1.134,2.069-2.299,4.101-3.5,6.101c-1.199,2-2.434,4.034-3.699,6.1c-1.27,2.068-2.5,4.1-3.7,6.1c-0.269,0.27-0.5,0.5-0.7,0.7
			C791.406,689.398,791.172,689.633,790.906,689.898z M802.105,624.099c-1.6,5.868-3,11.669-4.199,17.399c-0.535,2.27-1,4.5-1.4,6.7
			s-0.801,4.435-1.2,6.7c-0.399,2.269-0.8,4.5-1.2,6.7s-0.734,4.435-1,6.7v0.6c1.066-1.466,2.166-2.966,3.301-4.5
			c1.131-1.531,2.23-3.1,3.299-4.7c2.666-3.731,5.132-7.531,7.4-11.399c2.266-3.866,4.531-7.866,6.801-12
			c1.199-2,2.33-4.031,3.399-6.101c1.065-2.065,2.132-4.231,3.2-6.5L802.105,624.099z M804.506,615.099
			c-0.135,0.134-0.2,0.399-0.2,0.8l19.601,0.4c0.399-0.801,0.766-1.601,1.1-2.4c0.331-0.8,0.699-1.6,1.1-2.4
			c1.865-4.266,3.631-8.531,5.301-12.8c1.665-4.266,3.23-8.531,4.699-12.8c0.266-1.065,0.6-2.166,1-3.3c0.4-1.132,0.731-2.231,1-3.3
			c0.266-1.066,0.5-2.166,0.7-3.301c0.2-1.131,0.431-2.23,0.7-3.3c0.266-1.065,0.465-2.165,0.6-3.3
			c0.131-1.131,0.201-2.231,0.201-3.3v-3.2c-0.135-0.666-0.201-1.231-0.201-1.7c0-0.466-0.135-0.966-0.4-1.5
			c-0.268-0.931-0.6-1.731-1-2.399l-0.6-0.601c-0.269-0.266-0.534-0.399-0.8-0.399c-0.534-0.132-1.2-0.132-2,0
			c-0.534,0-1.335,0.269-2.399,0.8c-1.469,0.8-2.936,2-4.4,3.6c-0.669,0.669-1.301,1.435-1.9,2.3c-0.6,0.869-1.234,1.77-1.9,2.7
			c-0.268,0.4-0.568,0.835-0.899,1.3c-0.335,0.469-0.634,0.969-0.899,1.5c-0.27,0.4-0.535,0.835-0.801,1.301
			c-0.269,0.469-0.534,0.969-0.8,1.5c-0.534,0.934-1.034,1.868-1.5,2.8c-0.469,0.935-0.969,1.935-1.5,3
			c-0.935,2-1.835,4.034-2.7,6.1c-0.869,2.069-1.699,4.169-2.5,6.3c-1.734,4.135-3.3,8.369-4.699,12.7
			C807.006,606.533,805.705,610.833,804.506,615.099z"/>
	</g>
</g>
<g>
	<g>
		<polygon fill="none" stroke="#000000" stroke-width="5" stroke-miterlimit="10" points="251.5,517.5 335.5,517.5 335.5,537.5 
			272.5,537.5 272.5,576.5 328.5,576.5 328.5,597.5 272.5,597.5 272.5,656.5 251.5,656.5 		"/>
		<path fill="none" stroke="#000000" stroke-width="5" stroke-miterlimit="10" d="M468.5,517.5v95c0,28.4-27.9,43.2-51.9,43.2
			c-24.6,0-52.1-14.8-52.1-43.4v-94.8h21v95c0,15.4,16.3,23,31.1,23c14.6,0,30.9-7.8,30.9-23.2v-94.8H468.5z"/>
		<path fill="none" stroke="#000000" stroke-width="5" stroke-miterlimit="10" d="M628.42,604.5c-8,32-33.6,52.1-66.2,52.1
			c-19,0-36.2-8.654-48.399-21.455c-12-12.789-20-30.723-20-50.122c0-19.8,8-37.556,20-50.356
			c12.199-12.6,29.399-19.788,48.399-19.788c32,0,57.2,21.622,65.2,52.622h-20c-7.4-21-24.6-32.7-45.2-32.7
			c-13.399,0-25.6,5.245-34.399,14.445c-8.801,9.21-14.4,21.327-14.4,35.728c0,14,5.6,26.264,14.4,35.463
			c8.8,9.201,21,16.232,34.399,16.232c21.2,0,39.2-11.168,46.4-32.168H628.42z"/>
		<path fill="none" stroke="#000000" stroke-width="5" d="M677.621,514.501v139.798h-20V514.501H677.621z M681.422,579.3
			l48.799-64.799h25.399L702.221,583.9l59,70.398h-26.4L681.422,589.5V579.3z"/>
	</g>
</g>
</svg>
